<svg width="277" height="101" viewBox="0 0 277 101" fill="none" xmlns="http://www.w3.org/2000/svg">
<path d="M26.2407 94.2464C25.612 92.7198 24.1103 89.0072 23.5543 87.2625H23.5283V94.2464H22.5566V85.8323H23.97C23.97 85.8323 26.3706 92.0199 26.7396 92.9683C27.0981 92.0199 29.4364 85.8323 29.4364 85.8323H30.8393V94.2464H29.8677V87.2625H29.8417C29.2389 89.0529 27.6645 93.0089 27.1605 94.2464H26.2355H26.2407Z" fill="black"/>
<path d="M42.8576 85.6904C45.1335 85.6904 46.6975 87.359 46.6975 90.042C46.6975 92.725 45.1335 94.3936 42.8576 94.3936C40.5816 94.3936 39.0176 92.725 39.0176 90.042C39.0176 87.359 40.5816 85.6904 42.8576 85.6904ZM42.8576 93.5416C44.6814 93.5416 45.5907 92.0048 45.5907 90.0471C45.5907 88.0893 44.6814 86.5475 42.8576 86.5475C41.0337 86.5475 40.1244 88.0843 40.1244 90.0471C40.1244 92.0099 41.0337 93.5416 42.8576 93.5416Z" fill="black"/>
<path d="M54.8711 85.8369H57.8745C59.5996 85.8369 60.4726 86.6179 60.4726 87.9163C60.4726 89.1285 59.6983 89.6458 59.0696 89.874C59.9789 90.0059 60.8311 90.6196 60.8311 91.847C60.8311 93.2671 59.688 94.251 58.0356 94.251H54.8711V85.8369ZM55.9311 86.6534V89.5038H57.5419C58.737 89.5038 59.4022 88.9966 59.4022 88.0025C59.4022 87.0997 58.8462 86.6585 57.677 86.6585H55.9311V86.6534ZM55.9311 93.4294H57.6666C59.2775 93.4294 59.7607 92.6838 59.7607 91.8571C59.7607 90.7413 58.8877 90.3204 57.6303 90.3204H55.9311V93.4345V93.4294Z" fill="black"/>
<path d="M68.9785 85.8369H70.0489V94.251H68.9785V85.8369Z" fill="black"/>
<path d="M78.6758 85.8369H79.7462V93.4091H83.5654V94.251H78.6758V85.8369Z" fill="black"/>
<path d="M91.3477 85.8371H92.4181V94.2513H91.3477V85.8371Z" fill="black"/>
<path d="M100.219 85.8369H106.387V86.6788H103.84V94.251H102.77V86.6788H100.224V85.8369H100.219Z" fill="black"/>
<path d="M114.191 94.2463V85.8322H119.237V86.6741H115.262V89.4839H118.977V90.3258H115.262V93.4044H119.325V94.2463H114.191ZM118.203 83.9759L116.01 85.2641L115.652 84.7367L117.694 83.2455L118.198 83.9759H118.203Z" fill="black"/>
<path d="M143.57 94.2464H142.053L141.289 92.1314H138.037L137.273 94.2464H135.844L138.972 85.8271H140.453L143.57 94.2464ZM139.642 87.4907C139.616 87.5719 139.58 87.6834 139.538 87.8204C139.491 87.9624 139.44 88.1196 139.377 88.3022C139.315 88.4848 139.247 88.6775 139.18 88.8804C139.112 89.0833 139.039 89.2861 138.961 89.489C138.795 89.9607 138.619 90.4729 138.431 91.0156H140.894C140.697 90.4729 140.515 89.9607 140.354 89.489C140.281 89.2861 140.209 89.0883 140.141 88.8804C140.073 88.6724 140.006 88.4848 139.944 88.3022C139.881 88.1196 139.824 87.9624 139.777 87.8204C139.73 87.6784 139.689 87.5668 139.668 87.4907H139.642Z" fill="black"/>
<path d="M151.184 85.8323H152.639V93.085H156.432V94.2515H151.184V85.8323Z" fill="black"/>
<path d="M162.172 85.8323H168.677V86.9988H166.152V94.2515H164.697V86.9988H162.172V85.8323Z" fill="black"/>
<path d="M176.338 94.2463V85.8271H181.794V86.9936H177.777V89.3266H181.524V90.4932H177.777V93.0798H181.867V94.2463H176.338Z" fill="black"/>
<path d="M195.999 88.236C195.999 88.8599 195.833 89.3772 195.506 89.7829C195.178 90.1887 194.737 90.4727 194.186 90.6299L196.342 94.2512H194.679L192.684 90.8024H191.266V94.2512H189.826V85.832H192.918C193.297 85.832 193.666 85.8725 194.035 85.9486C194.399 86.0247 194.726 86.1566 195.022 86.3392C195.313 86.5217 195.552 86.7703 195.729 87.0796C195.911 87.389 195.999 87.7745 195.999 88.2411V88.236ZM194.518 88.2715C194.518 87.8151 194.362 87.4905 194.051 87.2927C193.739 87.0949 193.282 86.9985 192.684 86.9985H191.266V89.6561H192.783C193.391 89.6561 193.832 89.5344 194.108 89.291C194.383 89.0475 194.518 88.7077 194.518 88.2766V88.2715Z" fill="black"/>
<path d="M204.18 85.8322H205.707C206.3 86.7451 206.856 87.6023 207.386 88.4036C207.609 88.7485 207.833 89.0985 208.061 89.4484C208.29 89.8035 208.513 90.1433 208.721 90.4628C208.929 90.7874 209.121 91.0866 209.293 91.3605C209.464 91.6344 209.61 91.8525 209.724 92.0198H209.76V85.8271H211.127V94.2464H209.599C209.017 93.3487 208.467 92.5017 207.947 91.7105C207.723 91.3757 207.5 91.0258 207.271 90.6707C207.043 90.3157 206.819 89.9759 206.611 89.6513C206.404 89.3267 206.206 89.0275 206.035 88.7485C205.858 88.4746 205.707 88.2413 205.583 88.0587H205.546V94.2514H204.18V85.8322Z" fill="black"/>
<path d="M226.465 94.2464H224.948L224.184 92.1314H220.931L220.167 94.2464H218.738L221.866 85.8271H223.347L226.465 94.2464ZM222.531 87.4907C222.506 87.5719 222.469 87.6834 222.428 87.8204C222.381 87.9624 222.329 88.1196 222.266 88.3022C222.204 88.4848 222.137 88.6775 222.069 88.8804C222.001 89.0833 221.929 89.2861 221.851 89.489C221.685 89.9607 221.508 90.4729 221.321 91.0156H223.784C223.586 90.4729 223.404 89.9607 223.243 89.489C223.171 89.2861 223.098 89.0883 223.03 88.8804C222.963 88.6724 222.895 88.4848 222.833 88.3022C222.771 88.1196 222.713 87.9624 222.667 87.8204C222.62 87.6784 222.578 87.5668 222.557 87.4907H222.531Z" fill="black"/>
<path d="M232.451 85.8323H238.957V86.9988H236.431V94.2515H234.977V86.9988H232.451V85.8323Z" fill="black"/>
<path d="M246.615 85.832H248.07V94.2512H246.615V85.832Z" fill="black"/>
<path d="M257.227 85.832C257.554 86.7297 257.866 87.597 258.162 88.4287C258.287 88.7838 258.417 89.1439 258.552 89.5243C258.687 89.9046 258.817 90.2698 258.942 90.6248C259.066 90.9799 259.181 91.3197 259.285 91.6392C259.394 91.9587 259.487 92.2428 259.57 92.4913H259.596C259.669 92.2428 259.763 91.9587 259.872 91.6392C259.981 91.3197 260.1 90.9799 260.23 90.6248C260.355 90.2698 260.49 89.8996 260.625 89.5243C260.76 89.1489 260.89 88.7838 261.015 88.4287C261.311 87.597 261.623 86.7297 261.95 85.832H263.441L260.251 94.2512H258.822L255.684 85.832H257.237H257.227Z" fill="black"/>
<path d="M271.021 94.2463V85.8271H276.477V86.9936H272.461V89.3266H276.207V90.4932H272.461V93.0798H276.55V94.2463H271.021Z" fill="black"/>
<path d="M276.401 68.4921L265.583 33.9479L265.489 33.9783L265.505 33.9428H243.51L238.152 51.2682H251.694L254.858 68.4718L276.401 68.4921Z" fill="black"/>
<path d="M224.709 4.27258L204.6 68.4616L226.143 68.4717L246.252 4.27258H224.709Z" fill="black"/>
<path d="M30.117 68.5126C26.303 58.0139 17.5007 32.4316 13.7855 20.5027H13.4945V68.5126H0V1.69635H20.5353C20.5353 1.69635 35.3028 44.8373 37.3553 51.4256C39.3091 44.8373 53.5882 1.69635 53.5882 1.69635H74.0247V68.5075H60.5303V20.4976H60.2393C56.3266 32.4265 46.7448 60.3926 43.809 68.5075H30.117V68.5126Z" fill="black"/>
<path d="M112.742 0.362427C132.789 0.362427 146.086 13.4376 146.086 35.1044C146.086 56.7713 132.789 69.8464 112.742 69.8464C92.6955 69.8464 79.3984 56.7713 79.3984 35.1044C79.3984 13.4376 92.6955 0.362427 112.742 0.362427ZM112.742 58.0139C125.062 58.0139 130.929 48.6614 130.929 35.1044C130.929 21.5474 125.062 12.2001 112.742 12.2001C100.422 12.2001 94.5557 21.5525 94.5557 35.1044C94.5557 48.6563 100.422 58.0139 112.742 58.0139Z" fill="black"/>
<path d="M151.457 1.69635H181.184C193.993 1.69635 201.429 9.14179 201.429 19.1637C201.429 27.2786 196.342 31.7621 191.26 33.5778C197.126 34.435 204.463 38.2541 204.463 48.56C204.463 60.0122 195.172 68.5075 182.463 68.5075H151.462V1.69635H151.457ZM165.736 13.3413V28.8053H176.004C183.045 28.8053 186.37 26.8019 186.37 20.8831C186.37 15.441 183.632 13.3413 176.788 13.3413H165.736ZM165.736 56.8677H177.469C186.76 56.8677 189.4 53.9108 189.4 48.4687C189.4 42.0731 185.295 40.2625 177.277 40.2625H165.736V56.8727V56.8677Z" fill="black"/>
<path d="M13.4842 91.8986L0.03125 95.9002V92.2232L13.4842 88.2215V91.8986Z" fill="black"/>
<path d="M13.4842 96.7369L0.03125 100.739V97.0615L13.4842 93.0598V96.7369Z" fill="black"/>
<path d="M13.4842 87.06L0.03125 91.0617V87.3846L13.4842 83.3779V87.06Z" fill="black"/>
</svg>
