<svg width="321" height="128" viewBox="0 0 321 128" fill="none" xmlns="http://www.w3.org/2000/svg">
<path d="M10.3092 102.132C11.1094 102.132 11.7174 102.725 11.7174 103.506C11.7174 104.287 11.1094 104.88 10.3092 104.88H2.81112V109.481H10.0078C10.7509 109.481 11.3329 110.044 11.3329 110.799C11.3329 111.499 10.7561 112.118 10.0078 112.118H2.81112V118.037H10.2572C11.0315 118.037 11.6654 118.63 11.6654 119.411C11.6654 120.192 11.0315 120.786 10.2572 120.786H1.37697C0.550776 120.786 0 120.192 0 119.411V103.506C0 102.725 0.550776 102.132 1.37697 102.132H10.3092Z" fill="black"/>
<path d="M16.1866 120.056C15.8281 120.674 15.3865 120.918 14.9448 120.918C14.2017 120.918 13.5938 120.355 13.5938 119.655C13.5938 119.386 13.6509 119.117 13.8692 118.793L16.7946 114.269L14.2017 110.287C13.9835 109.963 13.9003 109.669 13.9003 109.4C13.9003 108.7 14.5083 108.137 15.1942 108.137C15.6618 108.137 16.1295 108.38 16.488 109.024L18.3638 112.199L20.1825 109.024C20.5151 108.406 21.0087 108.137 21.4504 108.137C22.1415 108.137 22.8014 108.7 22.8014 109.43C22.8014 109.699 22.7182 109.968 22.5 110.292L19.9071 114.274L22.7494 118.823C22.9417 119.148 23.0248 119.386 23.0248 119.63C23.0248 120.355 22.3909 120.923 21.6738 120.923C21.2321 120.923 20.7905 120.71 20.4579 120.116L18.3067 116.373L16.1815 120.061L16.1866 120.056Z" fill="black"/>
<path d="M28.1793 126.142C28.1793 127.111 27.7377 127.598 26.8543 127.598C25.971 127.598 25.5293 127.111 25.5293 126.142V109.588C25.5293 108.619 25.945 108.107 26.8231 108.107C27.7013 108.107 28.117 108.7 28.117 109.856C28.86 108.807 30.4345 108 32.2791 108C35.9736 108 38.5405 110.881 38.5405 114.568C38.5405 118.255 36.0048 121.136 32.2791 121.136C30.5956 121.136 28.9691 120.38 28.1689 119.255V126.147L28.1793 126.142ZM35.8697 114.568C35.8697 112.337 34.2693 110.587 32.0089 110.587C29.7486 110.587 28.1741 112.337 28.1741 114.568C28.1741 116.8 29.8005 118.55 32.0089 118.55C34.2173 118.55 35.8697 116.719 35.8697 114.568Z" fill="black"/>
<path d="M43.3465 114.862C43.6479 116.987 44.9158 118.493 47.4255 118.493C48.6674 118.493 49.6599 118.062 50.377 117.444C50.7355 117.119 51.0681 116.987 51.5098 116.987C52.1437 116.987 52.7516 117.499 52.7516 118.225C52.7516 119.462 50.5173 121.024 47.3476 121.024C43.6271 121.024 40.6445 118.118 40.6445 114.456C40.6445 110.794 43.622 107.863 47.3476 107.863C51.0733 107.863 53.635 110.769 53.635 113.112C53.635 114.243 52.9179 114.862 51.6241 114.862H43.3518H43.3465ZM50.9797 112.869C50.6784 111.307 49.2442 110.338 47.3684 110.338C45.4926 110.338 43.9753 111.307 43.4817 112.869H50.9797Z" fill="black"/>
<path d="M58.8664 109.719C59.3912 108.644 60.6331 107.888 62.0361 107.888C63.4391 107.888 65.32 108.644 65.32 109.963C65.32 110.688 64.8212 111.281 64.0522 111.281C63.6105 111.281 63.3351 111.119 63.0597 110.906C62.5609 110.531 62.1244 110.368 61.5165 110.368C59.8069 110.368 58.8976 111.581 58.8976 113.168V119.036C58.8976 120.223 58.6482 120.842 57.5726 120.842C56.5541 120.842 56.3047 120.223 56.3047 118.985V109.592C56.3047 108.756 56.6632 108.218 57.4634 108.218C58.4299 108.218 58.6793 108.674 58.8716 109.724L58.8664 109.719Z" fill="black"/>
<path d="M68.6826 108.269V105.657C68.6826 104.688 69.1243 104.201 69.9764 104.201C70.8858 104.201 71.3534 104.688 71.3534 105.657V108.269H72.7616C73.5358 108.269 74.0035 108.7 74.0035 109.344C74.0035 109.988 73.5878 110.369 72.7616 110.369H71.3534V119.549C71.3534 120.492 70.8858 120.923 70.0024 120.923C69.1191 120.923 68.6774 120.492 68.6774 119.549V110.369H67.4615C66.6872 110.369 66.3027 109.993 66.3027 109.344C66.3027 108.619 66.6872 108.269 67.4615 108.269H68.6774H68.6826Z" fill="black"/>
<path d="M78.9143 104.662C78.9143 105.712 78.057 106.305 77.3399 106.305C76.3214 106.305 75.6875 105.712 75.6875 104.662C75.6875 103.775 76.3214 103.1 77.3399 103.1C78.057 103.1 78.9143 103.775 78.9143 104.662ZM78.6649 119.543C78.6649 120.456 78.2232 120.917 77.3139 120.917C76.4046 120.917 75.9889 120.461 75.9889 119.543V109.612C75.9889 108.618 76.4046 108.157 77.2827 108.157C78.1609 108.157 78.6597 108.613 78.6597 109.612V119.543H78.6649Z" fill="black"/>
<path d="M89.4221 110.449C89.4221 111.256 88.8454 111.636 88.2062 111.636C87.6814 111.636 87.2969 111.448 86.9903 110.936C86.7409 110.505 86.2732 110.023 85.473 110.023C84.756 110.023 84.2623 110.51 84.2623 111.154C84.2623 111.961 84.8391 112.447 85.5042 112.742C86.6058 113.254 87.5982 113.629 88.3465 114.141C89.3649 114.816 89.9729 115.678 89.9729 117.266C89.9729 119.69 87.962 121.171 85.6133 121.171C83.4361 121.171 81.1758 120.015 81.1758 118.158C81.1758 117.433 81.6746 116.946 82.3605 116.946C83.1348 116.946 83.4933 117.433 83.7947 117.915C84.1792 118.534 84.7871 118.858 85.7224 118.858C86.5226 118.858 87.3488 118.265 87.3488 117.403C87.3488 116.84 87.0735 116.409 86.3564 115.896C85.5562 115.359 84.5897 115.115 83.4881 114.415C82.3865 113.715 81.6954 112.802 81.6954 111.266C81.6954 108.816 83.8207 107.847 85.6133 107.847C86.9903 107.847 88.1802 108.253 88.9233 109.141C89.1727 109.409 89.4221 109.866 89.4221 110.459V110.449Z" fill="black"/>
<path d="M94.6844 114.862C94.9858 116.987 96.2537 118.493 98.7635 118.493C100.005 118.493 100.998 118.062 101.715 117.444C102.073 117.119 102.406 116.987 102.848 116.987C103.482 116.987 104.09 117.499 104.09 118.225C104.09 119.462 101.855 121.024 98.6855 121.024C94.965 121.024 91.9824 118.118 91.9824 114.456C91.9824 110.794 94.9598 107.863 98.6855 107.863C102.411 107.863 104.973 110.769 104.973 113.112C104.973 114.243 104.256 114.862 102.962 114.862H94.6896H94.6844ZM102.323 112.869C102.021 111.307 100.587 110.338 98.7115 110.338C96.8357 110.338 95.3184 111.307 94.8247 112.869H102.323Z" fill="black"/>
<path d="M117.876 114.862C118.177 116.987 119.45 118.493 121.955 118.493C123.197 118.493 124.189 118.062 124.906 117.444C125.265 117.119 125.597 116.987 126.039 116.987C126.673 116.987 127.281 117.499 127.281 118.225C127.281 119.462 125.047 121.024 121.877 121.024C118.156 121.024 115.174 118.118 115.174 114.456C115.174 110.794 118.151 107.863 121.877 107.863C125.603 107.863 128.164 110.769 128.164 113.112C128.164 114.243 127.447 114.862 126.153 114.862H117.881H117.876ZM125.514 112.869C125.213 111.307 123.779 110.338 121.903 110.338C120.027 110.338 118.51 111.307 118.016 112.869H125.514Z" fill="black"/>
<path d="M133.37 109.856C133.921 108.781 135.522 107.863 137.34 107.863C140.344 107.863 142.635 109.856 142.635 113.731V118.899C142.635 120.137 142.469 120.918 141.31 120.918C140.427 120.918 139.985 120.461 139.985 119.518V113.838C139.985 111.55 138.691 110.338 136.706 110.338C134.721 110.338 133.479 111.682 133.479 114.025V118.95C133.479 120.187 133.261 120.913 132.102 120.913C131.245 120.913 130.809 120.456 130.809 119.538V109.552C130.809 108.745 131.167 108.208 132.024 108.208C132.991 108.208 133.292 108.745 133.376 109.851L133.37 109.856Z" fill="black"/>
<path d="M155.735 109.587C156.426 108.456 157.554 107.918 159.071 107.918C160.723 107.918 162.022 108.643 162.682 109.83C163.373 108.755 164.75 107.893 166.377 107.893C169.38 107.893 171.339 109.83 171.339 113.543V119.624C171.339 120.511 170.897 120.917 169.962 120.917C169.079 120.917 168.637 120.511 168.637 119.624V113.274C168.637 111.549 167.619 110.499 166.101 110.499C164.584 110.499 163.566 111.631 163.566 113.274V119.624C163.566 120.461 163.067 120.917 162.215 120.917C161.362 120.917 160.89 120.511 160.89 119.624V113.274C160.89 111.549 159.84 110.499 158.354 110.499C156.868 110.499 155.818 111.605 155.818 113.274V119.624C155.818 120.461 155.319 120.917 154.493 120.917C153.667 120.917 153.168 120.461 153.168 119.624V109.587C153.168 108.806 153.469 108.212 154.384 108.212C155.158 108.212 155.6 108.587 155.735 109.587Z" fill="black"/>
<path d="M180.303 121.055C176.551 121.055 173.6 118.123 173.6 114.461C173.6 110.799 176.551 107.868 180.303 107.868C184.054 107.868 187.084 110.749 187.084 114.461C187.084 118.174 184.023 121.055 180.303 121.055ZM176.25 114.456C176.25 116.637 178.042 118.437 180.303 118.437C182.563 118.437 184.413 116.632 184.413 114.456C184.413 112.28 182.563 110.475 180.303 110.475C178.042 110.475 176.25 112.275 176.25 114.456Z" fill="black"/>
<path d="M192.103 109.775C192.903 108.644 194.529 107.893 196.213 107.893C199.933 107.893 202.474 110.718 202.474 114.461C202.474 118.204 199.907 121.029 196.213 121.029C194.363 121.029 192.794 120.223 192.051 119.173C192.051 120.329 191.609 120.923 190.757 120.923C189.905 120.923 189.463 120.411 189.463 119.442V103.455C189.463 102.487 189.905 102 190.788 102C191.671 102 192.113 102.487 192.113 103.455V109.78L192.103 109.775ZM192.103 114.456C192.103 116.688 193.729 118.438 195.937 118.438C198.146 118.438 199.798 116.688 199.798 114.456C199.798 112.225 198.198 110.475 195.937 110.475C193.677 110.475 192.103 112.306 192.103 114.456Z" fill="black"/>
<path d="M208.044 104.662C208.044 105.712 207.192 106.305 206.475 106.305C205.456 106.305 204.822 105.712 204.822 104.662C204.822 103.774 205.456 103.1 206.475 103.1C207.192 103.1 208.044 103.774 208.044 104.662ZM207.795 119.543C207.795 120.456 207.353 120.917 206.443 120.917C205.534 120.917 205.118 120.461 205.118 119.543V109.612C205.118 108.618 205.534 108.156 206.412 108.156C207.29 108.156 207.789 108.613 207.789 109.612V119.543H207.795Z" fill="black"/>
<path d="M213.309 119.543C213.309 120.487 212.841 120.918 211.958 120.918C211.075 120.918 210.633 120.487 210.633 119.543V103.45C210.633 102.482 211.074 101.995 211.927 101.995C212.836 101.995 213.304 102.482 213.304 103.45V119.543H213.309Z" fill="black"/>
<path d="M219.071 104.662C219.071 105.712 218.219 106.305 217.502 106.305C216.484 106.305 215.85 105.712 215.85 104.662C215.85 103.774 216.484 103.1 217.502 103.1C218.219 103.1 219.071 103.774 219.071 104.662ZM218.822 119.543C218.822 120.456 218.38 120.917 217.471 120.917C216.561 120.917 216.146 120.461 216.146 119.543V109.612C216.146 108.618 216.561 108.156 217.44 108.156C218.318 108.156 218.817 108.613 218.817 109.612V119.543H218.822Z" fill="black"/>
<path d="M223.04 108.269V105.657C223.04 104.688 223.482 104.201 224.334 104.201C225.243 104.201 225.711 104.688 225.711 105.657V108.269H227.119C227.893 108.269 228.361 108.7 228.361 109.344C228.361 109.988 227.945 110.369 227.119 110.369H225.711V119.549C225.711 120.492 225.243 120.923 224.36 120.923C223.476 120.923 223.035 120.492 223.035 119.549V110.369H221.819C221.045 110.369 220.66 109.993 220.66 109.344C220.66 108.619 221.045 108.269 221.819 108.269H223.035H223.04Z" fill="black"/>
<path d="M232.112 114.862C232.414 116.987 233.687 118.494 236.191 118.494C237.433 118.494 238.426 118.062 239.143 117.444C239.501 117.119 239.834 116.987 240.275 116.987C240.909 116.987 241.517 117.5 241.517 118.225C241.517 119.462 239.283 121.024 236.113 121.024C232.393 121.024 229.41 118.118 229.41 114.456C229.41 110.795 232.388 107.863 236.113 107.863C239.839 107.863 242.401 110.769 242.401 113.112C242.401 114.243 241.684 114.862 240.39 114.862H232.117H232.112ZM239.751 112.869C239.449 111.307 238.015 110.338 236.139 110.338C234.263 110.338 232.746 111.307 232.252 112.869H239.751ZM237.407 102.32C237.766 102.107 238.098 102.025 238.374 102.025C239.117 102.025 239.641 102.644 239.641 103.263C239.641 103.775 239.34 104.232 238.649 104.5L235.588 105.763C235.287 105.87 235.147 105.9 234.98 105.9C234.404 105.9 233.988 105.495 233.988 104.987C233.988 104.637 234.128 104.369 234.648 104.044L237.407 102.32Z" fill="black"/>
<path d="M258.228 117.257L261.538 109.126C261.814 108.427 262.313 108.132 262.863 108.132C263.523 108.132 264.131 108.619 264.131 109.37C264.131 109.583 264.074 109.826 263.965 110.07L259.72 119.838C259.387 120.594 259.003 120.913 258.228 120.913C257.511 120.913 257.07 120.589 256.737 119.838L252.518 110.095C252.409 109.852 252.352 109.608 252.352 109.421C252.352 108.64 252.959 108.127 253.619 108.127C254.17 108.127 254.638 108.421 254.944 109.152L258.223 117.252L258.228 117.257Z" fill="black"/>
<path d="M269.505 104.662C269.505 105.712 268.653 106.305 267.936 106.305C266.917 106.305 266.283 105.712 266.283 104.662C266.283 103.775 266.917 103.1 267.936 103.1C268.653 103.1 269.505 103.775 269.505 104.662ZM269.255 119.543C269.255 120.456 268.814 120.917 267.904 120.917C266.995 120.917 266.579 120.461 266.579 119.543V109.612C266.579 108.618 266.995 108.157 267.873 108.157C268.751 108.157 269.25 108.613 269.25 109.612V119.543H269.255Z" fill="black"/>
<path d="M283.483 108.051C284.34 108.051 284.777 108.507 284.777 109.45V119.33C284.777 120.406 284.501 120.943 283.535 120.943C282.709 120.943 282.293 120.324 282.158 119.031C281.498 120.218 279.757 121.024 277.996 121.024C274.327 121.024 271.766 118.144 271.766 114.456C271.766 110.769 274.301 107.863 277.996 107.863C279.789 107.863 281.524 108.588 282.215 109.907C282.272 108.964 282.516 108.051 283.483 108.051ZM274.442 114.456C274.442 116.688 276.042 118.438 278.276 118.438C280.511 118.438 282.111 116.688 282.111 114.456C282.111 112.225 280.511 110.475 278.276 110.475C276.042 110.475 274.442 112.306 274.442 114.456Z" fill="black"/>
<path d="M290.019 109.775C290.819 108.644 292.445 107.893 294.129 107.893C297.849 107.893 300.39 110.718 300.39 114.461C300.39 118.204 297.823 121.029 294.129 121.029C292.279 121.029 290.71 120.223 289.967 119.173C289.967 120.329 289.525 120.923 288.673 120.923C287.821 120.923 287.379 120.411 287.379 119.442V103.455C287.379 102.487 287.821 102 288.704 102C289.587 102 290.029 102.487 290.029 103.455V109.78L290.019 109.775ZM290.019 114.456C290.019 116.688 291.645 118.438 293.853 118.438C296.062 118.438 297.714 116.688 297.714 114.456C297.714 112.225 296.114 110.475 293.853 110.475C291.593 110.475 290.019 112.306 290.019 114.456Z" fill="black"/>
<path d="M305.463 119.543C305.463 120.486 304.996 120.918 304.112 120.918C303.229 120.918 302.787 120.486 302.787 119.543V103.45C302.787 102.482 303.229 101.995 304.081 101.995C304.99 101.995 305.458 102.482 305.458 103.45V119.543H305.463Z" fill="black"/>
<path d="M310.425 114.862C310.726 116.987 311.999 118.493 314.504 118.493C315.746 118.493 316.738 118.062 317.455 117.444C317.814 117.119 318.146 116.987 318.588 116.987C319.222 116.987 319.83 117.499 319.83 118.225C319.83 119.462 317.595 121.024 314.426 121.024C310.705 121.024 307.723 118.118 307.723 114.456C307.723 110.794 310.7 107.863 314.426 107.863C318.151 107.863 320.713 110.769 320.713 113.112C320.713 114.243 319.996 114.862 318.702 114.862H310.43H310.425ZM318.063 112.869C317.762 111.307 316.328 110.338 314.452 110.338C312.576 110.338 311.059 111.307 310.565 112.869H318.063Z" fill="black"/>
<path d="M314.695 24.436C311.718 24.436 309.255 26.7691 308.771 29.8477C308.74 29.9795 308.621 30.086 308.475 30.086C308.423 30.086 308.377 30.0759 308.335 30.0505C308.309 30.0353 308.288 30.015 308.262 29.9998C303.315 26.5053 297.231 24.4462 290.663 24.4462C274.066 24.4462 260.613 37.5771 260.613 53.7765C260.613 69.9759 274.066 83.1069 290.663 83.1069C297.262 83.1069 303.357 81.0325 308.309 77.5177H308.319C308.366 77.4822 308.423 77.467 308.486 77.467C308.631 77.467 308.751 77.5685 308.782 77.7054C309.27 80.7789 311.733 83.112 314.7 83.112C318.021 83.112 320.712 80.1906 320.712 76.5896V30.9483C320.712 27.3473 318.021 24.436 314.7 24.436H314.695ZM290.658 71.3605C280.702 71.3605 272.627 63.484 272.627 53.7613C272.627 44.0386 280.702 36.1621 290.658 36.1621C300.613 36.1621 308.688 44.0437 308.688 53.7613C308.688 63.4789 300.613 71.3605 290.658 71.3605Z" fill="black"/>
<path d="M248.585 30.9533V76.5795C248.585 80.1805 245.893 83.1018 242.572 83.1018C239.252 83.1018 236.561 80.1805 236.561 76.5795V30.9533C236.561 27.3523 239.252 24.436 242.572 24.436C245.893 24.436 248.585 27.3523 248.585 30.9533Z" fill="black"/>
<path d="M223.976 33.3823L205.852 78.3846C204.942 80.6517 203.118 82.2544 201.123 82.8072C198.135 83.7201 194.841 82.1124 193.62 79.0845L184.043 55.3027L177.933 40.1329C177.87 39.9402 173.157 27.6055 173.074 27.4229C172.134 25.3942 170.04 23.9842 167.603 23.9842C164.282 23.9842 161.596 26.6063 161.596 29.8472C161.596 30.4203 161.679 30.9782 161.84 31.5006C161.908 31.7339 166.621 44.1092 166.719 44.3273C167.753 47.2994 168.32 50.4794 168.32 53.7913C168.32 55.5918 168.153 57.3568 167.836 59.066C165.29 72.7498 153.027 83.1267 138.27 83.1267C121.679 83.1267 108.226 69.9958 108.221 53.7964C108.221 47.1929 110.455 41.0965 114.227 36.1971C119.657 29.1372 128.283 24.5472 138.005 24.466C138.094 24.466 138.182 24.466 138.27 24.4762C141.783 24.6435 144.568 27.1997 144.568 30.329C144.568 33.4584 141.783 36.0146 138.27 36.187C138.161 36.1971 138.052 36.1971 137.938 36.1971H137.813C128.07 36.4406 120.25 44.2258 120.25 53.7913C120.25 63.514 128.32 71.3855 138.275 71.3905C148.231 71.3905 156.301 63.5191 156.306 53.7964C156.306 51.9299 156.01 50.1345 155.464 48.4507C155.464 48.4405 155.454 48.4202 155.449 48.4101C155.334 48.0601 150.58 35.5632 150.445 35.2284C150.445 35.2183 150.434 35.2031 150.429 35.1879C149.884 33.504 149.587 31.7086 149.587 29.8421C149.587 25.9013 150.913 22.2648 153.157 19.3283C156.441 15.0274 161.7 12.2429 167.618 12.2429C174.363 12.2429 180.245 15.8591 183.331 21.22C183.342 21.2302 183.347 21.2454 183.357 21.2556C183.643 21.7577 183.908 22.275 184.147 22.8025L189.291 36.2124L199.31 61.0897C199.351 61.2672 199.507 61.3382 199.606 61.3382C199.731 61.3382 199.84 61.2621 199.881 61.1607L212.804 29.0763C214.238 25.526 217.896 23.6089 220.988 24.7957C224.08 25.9774 225.426 29.8168 223.997 33.3671L223.976 33.3823Z" fill="black"/>
<path d="M96.1546 50.8652V76.6097C96.1546 80.2107 93.4682 83.127 90.1427 83.127C86.8171 83.127 84.1359 80.2107 84.1359 76.6097V51.2405C84.1359 51.1187 84.1359 50.9919 84.1359 50.8652C84.1359 50.7384 84.1359 50.6116 84.1359 50.4898C83.928 42.5626 77.2769 36.2025 69.1137 36.2025C60.9506 36.2025 54.0916 42.7654 54.0916 50.8652V76.6097C54.0916 80.2107 51.4052 83.127 48.0796 83.127C44.754 83.127 42.0728 80.2107 42.0728 76.6097V51.2405C42.0728 51.1745 42.0728 51.1086 42.0728 51.0427V50.6876C42.0728 50.6217 42.0728 50.5558 42.0728 50.4898C41.865 42.5626 35.2139 36.2025 27.0507 36.2025C18.8875 36.2025 12.0285 42.7654 12.0285 50.8652V76.6097C12.0285 80.2107 9.3421 83.127 6.01654 83.127C2.69099 83.127 0.00976562 80.2107 0.00976562 76.6097V30.9836C0.00976562 27.3826 2.69619 24.4714 6.01654 24.4714C8.59385 24.4714 10.7866 26.2262 11.644 28.6911C11.6752 28.894 11.9558 29.0208 12.1429 28.8433C16.4141 26.0791 21.5427 24.4663 27.0507 24.4663C32.5586 24.4663 37.9886 26.1704 42.3326 29.0867C44.3955 30.4663 46.2454 32.1146 47.8406 33.981C47.851 34.0013 47.8666 34.0166 47.8821 34.0318C47.9341 34.0825 48.0069 34.1129 48.0796 34.1129C48.1627 34.1129 48.2355 34.0774 48.2927 34.0318C49.8931 32.145 51.7585 30.4815 53.837 29.0918C58.1862 26.1755 63.4499 24.4714 69.1189 24.4714C74.7879 24.4714 80.0569 26.1755 84.4009 29.0918C91.5093 33.8492 96.165 41.8272 96.165 50.8702L96.1546 50.8652Z" fill="black"/>
<path d="M242.578 14.4344C246.661 14.4344 249.972 11.2032 249.972 7.21721C249.972 3.23125 246.661 0 242.578 0C238.494 0 235.184 3.23125 235.184 7.21721C235.184 11.2032 238.494 14.4344 242.578 14.4344Z" fill="black"/>
</svg>
